<?xml version="1.0" standalone="no"?>
<!DOCTYPE svg PUBLIC "-//W3C//DTD SVG 20010904//EN"
 "http://www.w3.org/TR/2001/REC-SVG-20010904/DTD/svg10.dtd">
<svg version="1.0" xmlns="http://www.w3.org/2000/svg"
 width="600.000000pt" height="600.000000pt" viewBox="0 0 600.000000 600.000000"
 preserveAspectRatio="xMidYMid meet">
<metadata>
Created by potrace 1.14, written by Peter Selinger 2001-2017
</metadata>
<g transform="translate(0.000000,600.000000) scale(0.100000,-0.100000)"
fill="#000000" stroke="none">
<path d="M2409 5495 c-268 -51 -669 -219 -887 -373 -106 -74 -156 -100 -240
-122 -107 -28 -137 -146 -182 -715 -24 -297 -40 -411 -76 -545 -26 -95 -112
-291 -133 -304 -6 -4 -11 -12 -11 -18 0 -33 117 118 160 206 67 139 95 287
130 701 29 346 57 456 135 524 45 39 90 51 205 52 154 2 178 19 121 85 -17 19
-31 41 -31 50 0 27 78 99 155 143 99 57 313 142 440 177 75 19 133 28 231 31
211 9 371 -27 590 -131 134 -65 210 -112 276 -174 70 -66 102 -115 158 -247
68 -163 88 -192 189 -285 91 -83 104 -103 117 -187 13 -85 41 -30 31 62 -7 72
-43 136 -131 234 -86 96 -120 156 -166 294 -22 64 -45 111 -68 138 -84 98
-462 308 -702 389 -82 28 -209 34 -311 15z"/>
<path d="M3575 5084 c-36 -19 -45 -31 -45 -65 0 -37 82 -198 119 -233 63 -60
48 2 -27 116 -37 56 -42 69 -32 87 8 16 20 21 51 21 80 0 112 -37 140 -157 5
-26 23 -79 38 -118 16 -38 34 -101 40 -140 7 -38 23 -106 37 -150 37 -115 40
-195 15 -360 -39 -255 -44 -306 -34 -316 7 -7 28 44 63 148 45 134 53 172 57
253 5 91 3 101 -40 235 -33 105 -46 164 -51 234 -12 168 -53 317 -104 380 -58
71 -159 101 -227 65z"/>
<path d="M1720 4834 c-30 -25 -87 -63 -127 -86 -47 -27 -75 -51 -82 -67 -20
-52 -43 -273 -36 -350 9 -98 41 -318 60 -401 19 -87 40 -793 26 -867 -19 -96
-46 -132 -108 -140 -42 -5 -34 -9 -412 191 -102 54 -212 116 -245 139 -159
106 -318 262 -410 401 -74 111 -89 149 -89 226 0 123 61 202 273 352 173 123
213 154 341 266 120 105 179 177 179 219 0 50 -51 23 -186 -98 -283 -255 -468
-425 -520 -482 -134 -143 -164 -298 -88 -448 84 -167 340 -413 575 -554 35
-21 66 -40 69 -42 3 -3 8 -91 11 -196 7 -215 12 -238 99 -447 64 -151 92 -236
134 -405 61 -246 68 -314 64 -650 l-3 -300 31 -76 c56 -138 194 -320 322 -423
72 -58 155 -102 160 -85 6 15 -19 47 -125 159 -146 154 -198 221 -240 308
l-38 77 4 150 c11 424 10 431 -43 630 -69 257 -88 336 -82 343 3 3 14 -2 24
-11 44 -40 55 -5 41 138 -9 95 -55 344 -64 354 -3 2 -5 -49 -5 -115 0 -65 -4
-125 -9 -133 -16 -25 -42 -2 -72 64 -40 89 -66 203 -84 372 -8 77 -19 153 -25
167 -5 15 -10 29 -10 31 0 8 134 -68 209 -118 111 -74 178 -107 220 -107 54 1
118 34 142 74 l20 35 37 -41 c38 -42 175 -141 279 -202 79 -46 152 -74 334
-126 157 -45 207 -69 382 -184 166 -109 233 -143 322 -166 93 -24 188 -25 285
-5 119 25 111 31 -42 38 -183 9 -297 34 -414 92 -142 71 -321 196 -389 272
-29 32 -36 35 -140 49 -78 10 -126 23 -165 42 -49 25 -58 35 -87 93 -24 50
-51 82 -112 138 -94 84 -132 151 -178 316 l-28 100 -3 -50 c-7 -102 37 -271
101 -383 16 -29 27 -55 24 -58 -16 -16 -75 13 -124 62 -30 30 -57 53 -61 50
-4 -2 -8 71 -9 162 -1 92 -9 248 -17 347 -24 268 -21 409 9 525 25 96 31 150
18 150 -5 0 -17 -7 -27 -15 -38 -29 -44 -20 -50 78 -2 50 -8 111 -11 134 -5
31 -1 60 15 110 33 99 111 262 166 343 26 39 45 72 43 74 -2 2 -29 -16 -59
-40z"/>
<path d="M2655 4660 c-81 -83 -163 -149 -330 -265 -169 -119 -218 -156 -211
-163 8 -7 166 75 287 150 57 36 137 84 177 109 41 24 87 52 103 63 34 21 59
15 59 -14 0 -11 4 -20 9 -20 14 0 25 126 14 163 -14 51 -40 46 -108 -23z"/>
<path d="M3334 4528 c4 -24 11 -86 16 -138 5 -52 13 -108 16 -124 7 -31 10
-31 -45 -8 -23 9 15 -47 101 -150 43 -51 88 -112 99 -136 20 -41 20 -43 3 -69
l-17 -27 53 -48 c66 -59 318 -240 425 -304 l80 -49 -40 -3 c-64 -4 -195 -42
-260 -74 -66 -33 -149 -88 -143 -94 5 -5 143 50 189 76 55 30 100 25 67 -8
-22 -22 33 -13 112 18 84 34 108 36 135 16 32 -23 10 -67 -45 -87 -40 -15 -45
-20 -42 -45 2 -16 4 -56 5 -90 2 -53 -2 -65 -26 -97 -36 -47 -67 -50 -67 -7 0
30 -1 31 -34 25 -46 -9 -52 7 -21 52 14 21 25 45 25 55 0 26 -48 58 -89 58
-64 0 -80 -40 -36 -92 14 -16 23 -34 19 -39 -7 -12 -46 -11 -80 1 -23 9 -25 8
-15 -4 6 -7 38 -24 71 -36 32 -12 66 -30 76 -41 16 -18 16 -19 -17 -19 -72 0
-180 72 -262 174 -47 60 -43 38 9 -40 44 -65 101 -116 169 -150 141 -68 274
-24 336 112 16 35 33 64 39 64 5 0 12 -17 15 -37 4 -21 8 -49 10 -63 8 -47 -9
-95 -34 -98 -22 -4 -23 -5 -16 -81 8 -96 -6 -157 -40 -173 -27 -12 -127 3
-151 23 -8 6 -14 30 -15 53 -1 22 -4 52 -9 66 -8 29 -11 25 -36 -68 -22 -82
-60 -138 -131 -194 -125 -97 -147 -98 -62 -1 49 56 94 139 106 194 4 24 3 25
-37 25 -49 -1 -65 -21 -55 -72 9 -52 -27 -114 -120 -209 -94 -95 -194 -169
-273 -201 -146 -60 -406 4 -554 136 -31 28 -85 94 -121 148 -66 100 -106 142
-136 142 -48 0 -55 -68 -12 -127 37 -52 94 -99 219 -184 128 -88 202 -123 327
-154 105 -27 187 -31 250 -14 53 15 208 85 270 122 80 49 214 156 294 235 72
72 73 73 95 55 64 -53 106 -100 106 -118 0 -14 -28 -38 -105 -88 -132 -86
-168 -101 -194 -85 -17 10 -33 3 -120 -56 -110 -74 -186 -105 -258 -107 l-48
-1 40 -9 c51 -13 147 3 222 37 31 13 58 22 61 20 6 -7 -59 -84 -103 -123 -67
-60 -26 -34 108 66 192 143 227 162 227 124 0 -10 -9 -33 -20 -51 -11 -18 -20
-38 -20 -45 0 -14 22 12 96 114 41 59 70 87 120 118 62 39 68 41 99 30 18 -7
40 -9 48 -6 49 19 69 154 43 284 -16 76 -16 89 0 195 9 62 17 160 18 218 1
162 -21 194 -229 327 -126 80 -175 115 -237 170 -21 18 -44 30 -52 27 -15 -6
-56 40 -56 64 0 11 10 6 33 -16 l34 -33 6 107 c10 155 8 300 -4 374 -5 35 -12
66 -14 69 -3 2 -22 -16 -44 -40 l-39 -44 -21 19 c-16 15 -21 29 -19 55 3 35 5
36 46 39 38 3 43 6 40 25 -4 27 -69 47 -96 31 -67 -41 -83 -290 -20 -302 9 -2
37 15 62 39 39 35 47 39 52 24 9 -22 -5 -308 -15 -318 -11 -11 -102 121 -155
225 -29 59 -63 153 -92 257 -25 90 -52 179 -60 197 -21 49 -38 44 -30 -8z"/>
<path d="M2515 4356 c-67 -21 -117 -52 -181 -110 -60 -54 -88 -65 -59 -22 34
48 9 48 -45 0 -47 -43 -52 -75 -14 -92 14 -7 36 -9 50 -6 18 5 42 -5 92 -34
74 -45 148 -67 261 -77 53 -5 72 -4 67 4 -4 6 -17 11 -29 11 -79 0 -232 66
-286 124 -21 23 -22 25 -7 54 26 50 36 49 84 -7 66 -77 110 -95 167 -69 59 27
84 142 45 206 -17 28 -25 32 -62 31 -24 0 -61 -6 -83 -13z"/>
<path d="M2717 4307 c-4 -10 -7 -41 -7 -69 0 -56 -22 -111 -54 -133 -20 -15
-20 -15 4 -15 44 0 86 -35 115 -94 15 -31 30 -56 33 -56 16 0 -10 117 -38 169
-25 47 -34 78 -39 138 -4 49 -9 71 -14 60z"/>
<path d="M2777 3665 c-60 -122 -133 -187 -312 -282 -71 -38 -76 -42 -49 -43
58 0 159 39 232 90 39 27 73 46 76 42 9 -15 -32 -88 -89 -157 -45 -55 -54 -71
-41 -73 44 -9 147 101 206 217 19 37 20 48 10 64 -10 16 -9 37 6 109 24 119
10 131 -39 33z"/>
<path d="M4360 3203 c0 -32 123 -139 207 -182 79 -39 179 -71 224 -71 32 0 16
14 -68 60 -82 44 -94 70 -34 70 56 0 203 -33 411 -92 231 -65 322 -86 434 -98
99 -11 159 -3 121 17 -29 15 -614 179 -723 203 -50 11 -165 29 -254 39 -114
14 -184 27 -231 45 -80 31 -87 31 -87 9z"/>
<path d="M4310 2608 c70 -118 83 -157 83 -248 0 -77 -5 -102 -56 -255 -31 -93
-79 -251 -106 -350 -86 -313 -142 -426 -319 -642 -174 -211 -367 -503 -333
-503 5 0 69 66 142 148 73 81 186 201 250 267 207 214 233 263 319 604 77 306
108 387 182 467 74 80 187 91 351 35 31 -11 57 -17 56 -13 0 4 -33 28 -72 54
-122 80 -185 136 -255 225 -129 166 -225 263 -259 263 -11 0 -6 -15 17 -52z"/>
<path d="M1502 2390 c7 -21 216 -181 283 -217 68 -37 73 -38 170 -38 89 0 109
4 188 34 89 33 111 35 87 6 -18 -22 -9 -26 33 -13 57 18 57 1 -1 -53 -29 -27
-48 -49 -42 -49 23 0 199 71 320 129 112 53 121 60 89 60 -20 1 -76 -10 -123
-24 -47 -14 -94 -25 -104 -25 -28 1 22 37 119 85 90 46 115 66 106 88 -10 26
-46 26 -95 0 -63 -34 -156 -70 -342 -134 -131 -44 -167 -53 -230 -53 -70 -1
-83 3 -172 46 -54 26 -140 74 -193 107 -53 33 -95 56 -93 51z"/>
<path d="M2861 1900 c-204 -105 -322 -149 -411 -157 -92 -8 -135 7 -214 74
-81 70 -126 103 -137 103 -33 0 14 -106 164 -377 219 -392 253 -487 244 -677
-5 -115 -21 -187 -61 -288 -13 -32 -21 -58 -17 -58 13 0 72 102 103 177 29 70
33 91 36 199 5 142 -10 233 -69 427 -51 170 -56 204 -34 250 22 46 71 79 231
152 71 32 160 77 198 99 69 42 176 135 176 155 0 22 -39 7 -209 -79z"/>
</g>
</svg>
